<svg xmlns="http://www.w3.org/2000/svg" viewBox="0 0 200 200">
  <rect width="200" height="200" rx="26" fill="#0E1628"/>
  <g fill="none" stroke="#B8924A" stroke-width="3" stroke-linecap="round" stroke-linejoin="round">
    <circle cx="100" cy="100" r="86"/>
    <line x1="100" y1="38" x2="100" y2="146" stroke-width="3.5"/>
    <path d="M44 56 C57 46 77 46 100 48 C123 46 143 46 156 56"/>
    <line x1="44" y1="56" x2="35" y2="80"/><line x1="44" y1="56" x2="53" y2="80"/>
    <path d="M31 80 a12 5 0 0 0 26 0"/>
    <line x1="156" y1="56" x2="147" y2="80"/><line x1="156" y1="56" x2="165" y2="80"/>
    <path d="M143 80 a12 5 0 0 0 26 0"/>
    <line x1="36" y1="128" x2="62" y2="128" stroke-width="2"/>
    <line x1="138" y1="128" x2="164" y2="128" stroke-width="2"/>
    <path d="M96 168 C72 164 52 149 43 126" stroke-width="2.5"/>
    <path d="M104 168 C128 164 148 149 157 126" stroke-width="2.5"/>
    <line x1="86" y1="158" x2="114" y2="158" stroke-width="2.5"/>
  </g>
  <circle cx="100" cy="33" r="4.2" fill="#B8924A"/>
  <path d="M90 146 L110 146 L106 153 L94 153 Z" fill="#B8924A"/>
  <g fill="#B8924A">
    <ellipse cx="79" cy="165" rx="7" ry="2.8" transform="rotate(-14 79 165)"/>
    <ellipse cx="64" cy="158" rx="7" ry="2.8" transform="rotate(-32 64 158)"/>
    <ellipse cx="53" cy="147" rx="7" ry="2.8" transform="rotate(-52 53 147)"/>
    <ellipse cx="46" cy="135" rx="7" ry="2.8" transform="rotate(-72 46 135)"/>
    <ellipse cx="121" cy="165" rx="7" ry="2.8" transform="rotate(14 121 165)"/>
    <ellipse cx="136" cy="158" rx="7" ry="2.8" transform="rotate(32 136 158)"/>
    <ellipse cx="147" cy="147" rx="7" ry="2.8" transform="rotate(52 147 147)"/>
    <ellipse cx="154" cy="135" rx="7" ry="2.8" transform="rotate(72 154 135)"/>
  </g>
  <text x="100" y="119" text-anchor="middle" font-family="Cormorant Garamond, Georgia, 'Times New Roman', serif" font-weight="600" font-size="30" letter-spacing="2.5" fill="#B8924A">NEUQUEN</text>
</svg>
